<svg xmlns="http://www.w3.org/2000/svg" width="197.979" height="319.389" viewBox="0 0 52.382 84.505">
  <g stroke-linecap="round" stroke-linejoin="round">
    <g stroke="#000">
      <path fill="#d58719" stroke-width=".63351" d="M43.817 69.475c5.594 1.393 6.813 4.356 7.429 5.804 1.514 3.56.905 6.379-1.72 7.906-2.626 1.527-4.847 1.233-6.526-.227-2.702-2.349-.991-5.004.408-4.9 1.398.105 4.852 1.736 3.177-1.437-.855-1.618-3.38-2.722-5.987-2.778-2.607-.057-2.375-5.76 3.219-4.368z"/>
      <path fill="#fff" stroke-width=".63351" d="M39.465 75c1.352.428.246 8.859-8.348 3.28-10.243-6.648 6.996-3.708 8.348-3.28zM6.406 75.487c-2.98.858-2.408 9.067 8.163 2.69 1.943-1.173-5.181-3.547-8.163-2.69z"/>
      <path fill="#d58719" stroke-width=".63351" d="M44.665 66.83c.171-2.461-.516-7.325-3.946-16.932 0 0-.136-2.5-.615-5.894s-1.3-7.68-2.672-11.25a2.742 2.742 0 00-.267-.512 5.963 5.963 0 00-.345-.464c1.83-1.507 3.126-3.39 4.004-5.618.878-2.228 1.338-4.803 1.494-7.694.048-.882-.113-1.84-.456-2.823s-.867-1.992-1.545-2.977c.012-.004 1.2-1.734.7-6.78-.308-3.131-1.81-6.011-3.863-5.515-1.577.381-3.414 1.493-5.012 2.649a44.951 44.951 0 00-3.577 2.91 23.55 23.55 0 00-2.337-.172 19.053 19.053 0 00-2.5.11 63.272 63.272 0 00-5.388.839c-1.025-1.04-3.096-2.88-5.18-4.239C11.074 1.11 8.975.23 7.893 1.112c-1.165.95-1.594 3.373-1.72 5.822-.127 2.45.048 4.926.087 5.985-.85 1.024-1.278 1.991-1.447 3.136-.168 1.144-.076 2.466.117 4.198a17.441 17.441 0 001.717 5.878 17.254 17.254 0 003.535 4.784c-.635.379-1.726 1.355-2.756 3.902-1.031 2.547-2.001 6.667-2.396 13.333 0 0-1.658 3.342-3.009 7.767-1.35 4.423-2.39 9.93-1.15 14.258 1.134 3.966 8.227 7.33 16.524 8.436 8.297 1.105 17.76-.055 23.712-5.128 2.1-1.87 3.388-4.19 3.558-6.653z"/>
    </g>
    <g fill="#fff">
      <path stroke="#fff" stroke-width=".63351" d="M32.637 58.579c1.859-1.213 6.904-3.423 7.228-10.87-.632-9.637-2.826-14.496-4.097-17.03-6.887-4.205-17.03-4.084-24.564.186-3.609 2.035-5.042 9.65-5.522 17.101-.396 6.493 3.429 7.747 5.05 8.892 9.756 4.653 12.163 7.319 21.905 1.72z"/>
      <path stroke="#000" stroke-width=".63351" d="M24.637 61.391c.048 7.427-5.221 26.672 4.184 21.723 4.283-2.253-.687-6.053-.068-8.198.62-2.144 3.34-9.336 5.98-22.664M20.116 60.85c-1.015 6.153 5.322 21.626-2.574 23.128-3.484.663-5.097-1.053-3.284-3.807 1.599-2.431 1.485-.993-1.504-13.58-2.32-9.773-2.04-14.654-2.04-14.654"/>
      <path stroke="#fff" stroke-width=".63351" d="M18.596 19.413c2.133-4.883 1.882-5.504 2.413-12.366 2.055-.506 3.561-.634 6.082-.514-.7 5.54-.79 8.062.535 12.768-2.426 3.393-6.425 2.352-9.03.112z"/>
    </g>
    <path stroke="#000" stroke-width=".63351" d="M29.134 20.056c-1.235-2.799 4.588-4.92 5.64-2.28s-4.403 4.63-5.64 2.28zM11.485 18.46c.256-3.049 6.383-2.12 6.041.7s-6.081 1.954-6.041-.7z"/>
    <path fill="#fff" stroke="#fff" stroke-width=".63351" d="M32.063 24.108s8.103-3.686 9.449-5.54c.29 2.448-.926 6.896-1.739 8.413-2.204 4.213-4.47 5.14-6.164 5.707-2.989 1-1.546-8.58-1.546-8.58zM5.452 19.042c1.317-.391 8.847 5.073 8.847 5.073s-.755 7.606-2.42 8.227c-2.337-3.42-2.546-2.885-4.24-5.744-1.02-1.578-1.908-3.767-2.187-7.556z"/>
    <path fill="#abf4ff" stroke="#000" stroke-width=".63351" d="M34.857 24.201c-.979 3.642 1.469 6.792 1.926 7.841-6.733 4.598-20.52 6.76-26.564-.867 1.476-2.223 2.166-3.515 1.007-7.398 7.15-3.135 17.38-4.256 23.631.424z"/>
  </g>
  <g fill="none" fill-opacity="0" stroke="#000">
    <path stroke-width=".63351" d="M34.857 24.201s4.28.155 6.96-1.313"/>
    <g stroke-linecap="round" stroke-linejoin="round">
      <path stroke-width=".63351" d="M15.349 26.451c-1.761.11-3.58.67-3.58.67l-.508-3.34s-2.59.941-5.828-.986M17.523 26.273c5.449-.852 11.33-.536 17.08.623M11.252 29.497s4.8 2.23 13.929 1.96M28.211 31.347s3.65-.284 7.221-1.49"/>
    </g>
  </g>
  <g stroke-linecap="round" stroke-linejoin="round">
    <path stroke="#fff" stroke-width=".6588504000000001" d="M31.046 18.754c-.085-.158-.136-.406.193-.582.328-.176.402-.063.486.095.084.157.147.298-.182.474-.329.176-.413.17-.497.013zM13.375 18.864c-.094-.151-.162-.396.155-.592.317-.197.397-.09.491.062.094.151.166.288-.15.486-.317.197-.402.195-.496.044z"/>
    <path fill="#ffa66f" stroke="#000" stroke-width=".63351" d="M30.542 6.81c.23-.855 2.7-3.79 6.316-4.15 3.617-.362 2.154 4.512 1.336 7.523-.818 3.01-6.384-1.578-7.652-3.373zM8.945 11.441c-1.591-2.12-1.97-4.16-.804-7.266 1.258-3.35 5.507-.918 6.852 2.762-.325 1.531-4.049 5.39-6.048 4.504z"/>
    <path fill="#fff" stroke="#fff" stroke-width=".63351" d="M47.21 79.81c.704.535 1.318 1.21 1.633 1.824.315.613.369.975-.123 1.261-1.493.691-2.373.73-2.957.673-.584-.056-1.493-.3-2.658-1.353-.43-.587-.932-1.273-.886-1.968.046-.693.424-1.328.93-1.501.245-.084 1.182.054 2.097.277.915.223 1.808.53 1.964.786z"/>
  </g>
</svg>
