<?xml version="1.0" encoding="UTF-8"?>
<svg width="235.35" height="321.9" version="1.1" viewBox="0 0 62.269 85.169" xmlns="http://www.w3.org/2000/svg" xmlns:cc="http://creativecommons.org/ns#" xmlns:dc="http://purl.org/dc/elements/1.1/" xmlns:rdf="http://www.w3.org/1999/02/22-rdf-syntax-ns#" xmlns:vectornator="http://vectornator.io">
 <metadata>
  <rdf:RDF>
   <cc:Work rdf:about="">
    <dc:format>image/svg+xml</dc:format>
    <dc:type rdf:resource="http://purl.org/dc/dcmitype/StillImage"/>
    <dc:title/>
   </cc:Work>
  </rdf:RDF>
 </metadata>
 <g transform="translate(-112.83 -84.632)">
  <g transform="matrix(.26458 0 0 .26458 -4.0872 33.656)" clip-rule="evenodd" fill-rule="evenodd" stroke-linecap="round" stroke-linejoin="round" vectornator:layerName="Layer 2">
   <g transform="rotate(-28.137 300.15 319.33)" fill-rule="evenodd">
    <g transform="matrix(1.4645 0 0 1.4645 -149.81 -24.771)">
     <g stroke="#000" stroke-linecap="round" stroke-linejoin="round">
      <path d="m317.43 363.31c6.75 6.102 6.241 11.134 6.02 13.609-0.541 6.081-3.488 9.552-8.279 9.724-4.792 0.171-7.664-1.892-8.915-5.174-2.012-5.28 2.346-7.703 4.215-6.516 1.869 1.186 5.462 6.027 5.492 0.364 0.015-2.889-2.679-6.305-6.265-8.324-3.586-2.02 0.982-9.786 7.732-3.683z" fill="#d58719"/>
      <path d="m307.26 367.76c1.562 1.603-6.252 12.515-14.062-1.647-9.309-16.88 12.499 0.045 14.062 1.647z" fill="#fff"/>
      <path d="m260.88 343.83c-4.788-1.025-10.101 10.828 9.36 9.82 3.578-0.186-4.572-8.794-9.36-9.82z" fill="#fff"/>
      <path d="m320.58 360.26c2.07-3.299 4.734-10.581 7.111-26.507 0 0 1.672-3.582 3.532-8.662s3.907-11.658 4.655-17.65c0.038-0.306 0.035-0.608 9e-3 -0.91-0.027-0.301-0.077-0.601-0.134-0.903 3.668-0.735 6.873-2.391 9.755-4.839 2.881-2.448 5.438-5.69 7.807-9.598 0.723-1.192 1.211-2.645 1.466-4.269s0.277-3.419 0.066-5.294c0.02 3e-3 2.961-1.521 6.023-8.917 1.9-4.588 1.955-9.714-1.273-10.552-2.479-0.643-5.864-0.463-8.949-0.044-3.084 0.418-5.868 1.076-7.145 1.388-0.987-0.691-2.02-1.358-3.126-1.979-1.105-0.621-2.284-1.197-3.562-1.709-1.415-0.566-2.795-1.08-4.146-1.55-1.351-0.471-2.675-0.899-3.978-1.293-0.652-2.209-2.165-6.311-4.055-9.755-1.891-3.444-4.159-6.23-6.321-5.808-2.33 0.456-4.73 3.509-6.729 6.823-2 3.315-3.6 6.892-4.333 8.396-1.945 0.793-3.262 1.82-4.349 3.288-1.086 1.467-1.941 3.376-2.963 5.931-1.246 3.113-1.894 6.301-1.985 9.46-0.091 3.16 0.375 6.291 1.359 9.29-1.166 0.055-3.411 0.601-6.741 3.38-3.331 2.778-7.748 7.79-13.259 16.776 0 0-4.797 3.417-9.97 8.571-5.172 5.153-10.719 12.044-12.217 18.991-1.372 6.364 5.996 16.328 16.722 24.043 10.727 7.715 24.763 13.144 36.824 10.513 4.317-1.039 7.836-3.311 9.906-6.611z" fill="#d58719"/>
     </g>
     <g fill="#fff" stroke-linecap="round" stroke-linejoin="round">
      <path d="m309.98 339.82c3.489-0.304 12.157 0.374 18.152-9.751 6.294-13.884 6.857-22.28 6.974-26.754-6.457-10.98-20.666-18.363-34.331-18.026-6.538 0.146-14.202 9.679-20.417 19.693-5.383 8.743-0.993 13.336 0.41 16.136 10.117 13.74 11.483 19.242 29.212 18.702z" stroke="#fff"/>
      <path d="m296.75 337.78c-5.462 10.374-27.122 33.239-10.347 33.352 7.639 0.052 3.55-8.938 6.009-11.462 2.459-2.523 11.597-10.51 25.194-27.097" stroke="#000"/>
      <path d="m290.86 333.66c-5.994 7.81-8.69 34.065-20.8 30.279-5.344-1.671-6.311-5.26-1.737-7.745 4.035-2.194 2.806-0.277 8.016-20.023 4.045-15.329 8.068-21.915 8.068-21.915" stroke="#000"/>
      <path d="m319.59 274.85c6.603-5.209 6.716-6.261 12.564-15.416 3.237 0.825 5.429 1.768 8.848 3.811-5.098 7.192-7.1 10.634-8.76 18.171-5.902 2.917-10.694-1.509-12.652-6.566z" stroke="#fff"/>
     </g>
     <g stroke-linecap="round" stroke-linejoin="round">
      <path d="m333.78 283.59c0.364-4.815 10.048-3.432 9.546 1.024s-9.573 3.167-9.546-1.024z" stroke="#000"/>
      <path d="m310.4 268.23c2.626-4.053 10.464 1.8 7.889 5.471s-9.92-1.806-7.889-5.471z" stroke="#000"/>
      <path d="m334.84 291.41s14.023 0.901 17.277-0.678c-1.418 3.625-6.422 8.91-8.683 10.417-6.205 4.224-10.049 3.827-12.828 3.355-4.906-0.832 4.234-13.094 4.234-13.094z" fill="#fff" stroke="#fff"/>
      <path d="m301.57 264.55c2.124 0.435 8.538 13.646 8.538 13.646s-6.712 10.026-9.492 9.651c-0.708-6.5-1.398-5.911-1.626-11.151-0.246-2.956 0.148-6.665 2.58-12.146z" fill="#fff" stroke="#fff"/>
      <path d="m338.66 293.62c-4.074 4.341-3.011 10.547-3.156 12.348-12.794 1.388-33.594-5.866-36.33-20.981 3.709-1.995 5.631-3.28 6.908-9.549 12.286 0.959 27.36 7.014 32.578 18.182z" fill="#abf4ff" stroke="#000"/>
     </g>
     <g fill="#b1486f" fill-opacity="0" stroke="#000">
      <path d="m338.66 293.62s5.842 3.402 10.666 3.353" stroke-linecap="butt" stroke-linejoin="miter"/>
      <g stroke-linecap="round" stroke-linejoin="round">
       <path d="m309.83 282.23c-2.533-1.157-5.481-1.731-5.481-1.731l1.778-5.028s-4.306-0.619-7.378-5.711"/>
       <path d="m312.99 283.6c8.218 2.87 16.17 7.689 23.312 13.582"/>
       <path d="m301.86 283.42s5.022 6.678 17.929 13.098"/>
       <path d="m324.09 298.62s5.293 2.322 11.16 3.301"/>
      </g>
     </g>
     <g stroke-linecap="round" stroke-linejoin="round">
      <path d="m337.41 283.2c0-0.282 0.113-0.666 0.702-0.666 0.588 0 0.606 0.212 0.606 0.494 0 0.281-0.018 0.525-0.606 0.525-0.589 0-0.702-0.072-0.702-0.353z" stroke="#fff" stroke-width="1.04"/>
      <path d="m312.73 270.2c-0.018-0.281 0.07-0.672 0.657-0.71 0.588-0.038 0.619 0.172 0.638 0.453 0.018 0.28 0.016 0.525-0.571 0.564-0.588 0.038-0.705-0.027-0.724-0.307z" stroke="#fff" stroke-width="1.04"/>
      <g>
       <path d="m345.6 266.2c0.956-1.02 6.578-3.265 11.881-1.076 5.304 2.189-0.361 7.884-3.741 11.467-3.379 3.582-7.711-6.948-8.14-10.391z" fill="#ffa66f" stroke="#000"/>
       <path d="m312.09 256.57c-0.636-4.137 0.354-7.257 4.289-10.713 4.246-3.728 8.35 2.822 7.482 8.944-1.592 1.89-9.648 4.49-11.771 1.769z" fill="#ffa66f" stroke="#000"/>
       <path d="m314.46 380.22c0.582 1.271 0.934 2.668 0.916 3.756-0.019 1.087-0.213 1.631-1.111 1.664-2.592-0.149-3.847-0.751-4.617-1.264-0.771-0.513-1.855-1.529-2.692-3.862-0.162-1.138-0.35-2.467 0.231-3.399 0.58-0.931 1.579-1.534 2.413-1.398 0.403 0.066 1.604 0.956 2.712 1.947 1.107 0.991 2.121 2.084 2.148 2.556z" fill="#fff" stroke="#fff"/>
      </g>
     </g>
    </g>
    <g transform="rotate(28.137 415.2 322.32)" clip-rule="evenodd" stroke-linecap="round" stroke-linejoin="round">
     <g id="Kikki box" transform="translate(-191.84 176.18)" vectornator:layerName="Kikki box">
      <g stroke="#000" stroke-linecap="round">
       <path d="m307.06 340.36 63.64-38.184 63.639 38.184-63.639 38.184z" fill="#624607"/>
       <path d="m370.7 302.18v25.456l-63.64 38.184v-25.456z" fill="#906505"/>
       <path d="m370.7 302.18-12.728-12.728-63.64 38.184 12.728 12.728z" fill="#b67e00"/>
       <path d="m434.34 340.36 12.728-12.728-63.639-38.184-12.728 12.728z" fill="#b67e00"/>
       <path d="m370.7 327.63 63.639 38.184v-25.456l-63.639-38.184z" fill="#906505"/>
       <path d="m399.88 360.37c1.874-0.165 9.485 8.896-8.9 7.701l-1.523-2.505" fill="#ffe3bf"/>
       <path d="m392.26 291.35-44.625 5.406 21.673 74.393 20.39-5.331 0.031-0.031 1.808 6.237c23.935-9.839 18.288-31.532 14.38-37.612-7.356-11.445-13-26.69-13-38.125z" fill="#f09c34"/>
       <path d="m343.67 280.8c-1.462-9.541 1.424-12.99 4.955-18.213 0 0-1.34-10.518 8.147-19.49 0 0 9.075 3.815 12.066 14.643 0 0 9.281-1.546 15.365 3.404 0 0 8.607-10.051 17.738-6.188 0 0 2.681 7.734-2.166 17.016 0 0 5.466 33.824-31.144 30.937-4.483-0.354-10.747-2.725-15.059-6.719" fill="#f09c34"/>
      </g>
      <path d="m368.63 258.89c3.59-0.999 13.396 0.11 14.516 3.246 0.346 3.894-12.089 18.839-11.217 28.102l-5.697-0.781c5.189-7.521 0.059-27.326 2.398-30.567z" fill="#ffe3bf" stroke="#ffe3bf" stroke-linecap="round"/>
      <g stroke="#000" stroke-linecap="round">
       <path d="m390.49 327.6s-3.533 34.361 7.64 40.298l-16.757 0.573z" fill-opacity=".33073" stroke-opacity="0"/>
       <path d="m382.87 381.22c-18.114 2.443-41.123-12.38-41.641-21.036 0 0-2.51-16.849 1.273-38.773-1.977-13.928-8.425-33.014-13.67-43.675-6.018-16.249-0.548-20.012-0.548-20.012s5.967-4.988 10.091 10.297c1.111 4.117 2.646 7.781 4.295 11.087 4.86 9.741 12.197 17.226 13.03 21.965" fill="#f09c34"/>
       <path d="m360.23 284.78s-8.794 3.425-7.406-6.109c0 0 8.338-3.256 7.406 6.109z"/>
       <path d="m379.55 289.59s1.085-9.374 8.863-3.688c0 0-1.021 8.892-8.863 3.688z"/>
      </g>
      <path d="m357.32 281.35c0-0.304 0.254-0.551 0.569-0.551 0.314 0 0.569 0.247 0.569 0.551s-0.255 0.55-0.569 0.55c-0.315 0-0.569-0.246-0.569-0.55z" fill="#fff" stroke="#fff" stroke-linecap="butt"/>
      <path d="m384.63 287.59c0-0.252 0.271-0.457 0.606-0.457 0.336 0 0.607 0.205 0.607 0.457 0 0.253-0.271 0.458-0.607 0.458-0.335 0-0.606-0.205-0.606-0.458z" fill="#fff" stroke="#fff" stroke-linecap="butt"/>
      <g stroke="#000" stroke-linecap="round">
       <path d="m365.84 289.51c0.355-2.115 1.909-1.704 3.754-1.325s3.369 0.704 2.927 2.698c-0.246 1.107-2.804 1.507-3.754 1.325-1.013-0.195-3.114-1.58-2.927-2.698z"/>
       <path d="m326.66 270.55s6.141-3.194 9.92-9l-1.371-2.871-8.343 3.369s-1.702 2.329-0.206 8.502z" fill-opacity=".33073" stroke-opacity="0"/>
       <path d="m306.55 253.81c9.326-10.097 24.414-14.976 31.021-15.27 4.619 3.478 8.678 11.313 9.287 15.145-3.536 4.36-16.593 14.061-31.264 17.495-4.078-2.477-9.102-14.129-9.044-17.37z" fill="#96eef9"/>
      </g>
      <g fill-opacity="0" stroke="#000" stroke-linecap="round">
       <path d="m307.04 257.76c-4.172 0.936-6.791 11.546-6.643 15.154 0.092 2.259 2.293 5.396 4.699 4.856 4.848-1.088 4.508-6.442 7.679-9.029"/>
       <path d="m340.43 240.35c-0.311 0.012 0.399-0.118 0.471-0.139 0.499-0.146 1.04-0.274 1.557-0.349 1.279-0.186 2.541-0.5 3.833-0.609 3.882-0.329 10.627 0.224 12.231 4.452 0.354 0.934 0.031 2.525-0.34 3.348-0.419 0.933-0.647 1.895-1.389 2.7-2.941 3.191-7.402-0.371-10.445 0.784"/>
       <path d="m308.51 260.47s11.735-10.004 23.465-13.127"/>
      </g>
      <g fill="#fff" fill-opacity="0" stroke="#000" stroke-linecap="round">
       <path d="m336.67 245.72s3.565-1.213 6.018-1.218"/>
       <path d="m311.43 265.63s3.928-1.208 9.179-3.804"/>
       <path d="m325.67 259.79s12.954-5.924 19.62-10.626"/>
      </g>
      <path d="m354.12 259.71s2.938-2.462 7.63-1.256" fill-opacity="0" stroke="#000" stroke-linecap="round"/>
      <path d="m388.5 264.18s4.092 0.708 6.503 4.779" fill-opacity="0" stroke="#000" stroke-linecap="round"/>
      <g fill="#ffe3bf" stroke="#ffe3bf" stroke-linecap="round">
       <path d="m337.04 374.15c-1.443 0.266-2.126 4.494-0.27 4.801 3.875 0.641 6.524-1.225 7.678-2.607 1.719-2.058-1.158-3.525-1.538-3.562-1.04-0.1-4.046 1.031-5.87 1.368z"/>
       <path d="m353.87 320.81c0-8.783 10.243-12.24 16.066-12.24 5.824 0 9.472 3.302 9.472 12.085s-12.238 20.703-16.454 17.632c-4.078-2.969-9.084-8.694-9.084-17.477z"/>
       <path d="m379.8 363.63c0.048-1.019 7.611-2.669 7.488-0.75-0.098 1.533 0.313 1.978 0.313 1.978s7.506 7.362-1.554 9.507c-5.976-1.051-6.514-5.13-6.247-10.735z"/>
      </g>
      <g fill-opacity=".33073" stroke="#000" stroke-linecap="round" stroke-opacity="0">
       <path d="m371.11 303.36c5.297 0.167 18.587-2.827 21.811-6.519 0.73 9.657 0.383 6.405 0.383 6.405-8.205 5.17-22.194 0.114-22.194 0.114z"/>
       <path d="m386.6 261.36c5.045-5.158 10.064-6.13 13.734-5.278 0 0 1.753 8.969-2.153 13.647-2.487-8.194-11.581-8.369-11.581-8.369z"/>
       <path d="m350.32 259.95c1.792-8.163 4.087-11.585 6.471-14.503 0 0 8.319 5.86 9.755 11.87-11.225-5.127-16.226 2.633-16.226 2.633z"/>
       <path d="m383.8 244.29"/>
      </g>
      <g stroke="#000" stroke-linecap="round">
       <path d="m370.7 416.74 63.639-37.727v-38.648l-63.639 38.184z" fill="#b67e00"/>
       <path d="m370.7 378.54 12.728 12.728 63.639-38.184-12.728-12.728z" fill="#dc9a04"/>
       <path d="m307.06 380.44 63.64 36.04v-37.938l-63.64-38.184z" fill="#b67e00"/>
       <path d="m307.06 340.36h-25.456l63.64 38.184h25.456l-10.244-6.146-2.493-1.496-23.095-13.857z" fill="#b67e00"/>
       <path d="m390.26 322.61c0.937 21.877-2.649 40.351-1.761 41.633 0.189 0.274 0.801 0.847 1.161 1.31 1.871 2.409 4.657 6.81-2.423 9.657-3.569 0.87-8.147-2.48-8.355-6.441-0.131-2.48-0.436-22.019-1.654-29.504" fill="#f09c34"/>
      </g>
     </g>
     <g id="Kikki" transform="matrix(2.2445 .2557 -.2557 2.2445 231.06 -338.03)" vectornator:layerName="Kikki">
      <g stroke="#000" stroke-linecap="round">
       <path d="m172.58 361.62s-13.615 5.072-12.789 15.461c0.53 6.674 7.937 6.613 10.308 6.537 3.338-0.107 10.624-4.458 4.521-8.051-1.937-1.14-7.376 2.726-7.936 0.244-0.348-2.884 2.399-5.007 11.396-8.745" fill="#f09c34"/>
       <path d="m230.86 363.95c1.874-0.166 9.485 8.896-8.9 7.701l-1.523-2.506" fill="#ffe3bf"/>
       <path d="m182.12 369.11s-10.042 13.938 15.89 3.445" fill="#ffe3bf"/>
       <path d="m223.24 294.93-44.625 5.407 27.657 71.093 14.406-2.031 0.031-0.031 0.188-0.063c23.935-9.839 19.908-25.232 16-31.312-7.356-11.445-13-26.691-13-38.125z" fill="#f09c34"/>
       <path d="m174.65 284.38c-1.462-9.54 1.424-12.99 4.955-18.212 0 0-1.34-10.519 8.147-19.49 0 0 9.075 3.815 12.066 14.643 0 0 9.281-1.547 15.365 3.403 0 0 8.607-10.05 17.738-6.187 0 0 2.681 7.734-2.166 17.015 0 0 5.466 33.825-31.144 30.938-4.483-0.354-10.747-2.725-15.059-6.72" fill="#f09c34"/>
      </g>
      <path d="m199.62 262.47c3.59-0.999 13.396 0.11 14.516 3.245 0.346 3.894-12.089 18.839-11.217 28.103l-5.697-0.781c5.189-7.521 0.059-27.326 2.398-30.567z" fill="#ffe3bf" stroke="#ffe3bf" stroke-linecap="round"/>
      <g stroke="#000" stroke-linecap="round">
       <path d="m221.47 331.18s-3.533 34.361 7.64 40.297l-16.757 0.573z" fill-opacity=".33073" stroke-opacity="0"/>
       <path d="m209.81 372.2c-18.113 2.443-37.449-4.763-37.967-13.42 0 0-2.15-11.865 1.633-33.788-1.977-13.928-8.425-33.015-13.67-43.675-6.018-16.25-0.548-20.012-0.548-20.012s5.967-4.989 10.091 10.296c1.111 4.117 2.646 7.782 4.295 11.087 4.86 9.742 12.197 17.227 13.03 21.965" fill="#f09c34"/>
       <path d="m221.24 326.19c0.937 21.877-2.649 40.351-1.761 41.633 0.189 0.274 0.504 0.656 0.864 1.119 1.872 2.409 4.954 7-2.126 9.847-3.569 0.871-8.147-2.48-8.356-6.44-0.13-2.481-0.435-22.019-1.653-29.504" fill="#f09c34"/>
       <path d="m191.21 288.36s-8.794 3.425-7.406-6.109c0 0 8.338-3.257 7.406 6.109z"/>
       <path d="m210.53 293.17s1.085-9.375 8.863-3.689c0 0-1.021 8.893-8.863 3.689z"/>
      </g>
      <path d="m188.3 284.93c0-0.305 0.254-0.551 0.569-0.551 0.314 0 0.569 0.246 0.569 0.551 0 0.304-0.255 0.55-0.569 0.55-0.315 0-0.569-0.246-0.569-0.55z" fill="#fff" stroke="#fff" stroke-linecap="butt"/>
      <path d="m215.61 291.17c0-0.253 0.271-0.458 0.606-0.458 0.336 0 0.607 0.205 0.607 0.458 0 0.252-0.271 0.457-0.607 0.457-0.335 0-0.606-0.205-0.606-0.457z" fill="#fff" stroke="#fff" stroke-linecap="butt"/>
      <g stroke="#000" stroke-linecap="round">
       <path d="m196.83 293.09c0.355-2.115 1.909-1.704 3.754-1.325 1.845 0.38 3.369 0.705 2.927 2.699-0.246 1.107-2.804 1.507-3.754 1.324-1.013-0.194-3.114-1.579-2.927-2.698z"/>
       <path d="m157.64 274.13s6.141-3.194 9.92-9l-1.371-2.871-8.343 3.368s-1.702 2.329-0.206 8.503z" fill-opacity=".33073" stroke-opacity="0"/>
       <path d="m137.53 257.39c9.326-10.096 24.414-14.976 31.021-15.27 4.619 3.479 8.678 11.313 9.287 15.146-3.536 4.359-16.593 14.061-31.264 17.494-4.078-2.476-9.102-14.129-9.044-17.37z" fill="#96eef9"/>
      </g>
      <g fill-opacity="0" stroke="#000" stroke-linecap="round">
       <path d="m138.02 261.34c-4.172 0.936-6.791 11.546-6.643 15.154 0.092 2.258 2.293 5.396 4.699 4.856 4.848-1.088 4.508-6.442 7.679-9.029"/>
       <path d="m171.41 243.93c-0.311 0.013 0.399-0.117 0.471-0.138 0.499-0.147 1.04-0.275 1.557-0.35 1.279-0.185 2.541-0.499 3.833-0.609 3.882-0.328 10.627 0.225 12.231 4.453 0.354 0.934 0.031 2.524-0.34 3.348-0.419 0.933-0.647 1.894-1.389 2.7-2.941 3.191-7.402-0.371-10.445 0.784"/>
       <path d="m139.49 264.05s11.735-10.005 23.465-13.128"/>
      </g>
      <g fill="#fff" fill-opacity="0" stroke="#000" stroke-linecap="round">
       <path d="m167.65 249.3s3.565-1.214 6.018-1.219"/>
       <path d="m142.42 269.21s3.928-1.209 9.179-3.805"/>
       <path d="m156.65 263.37s12.954-5.925 19.62-10.626"/>
      </g>
      <path d="m185.1 263.29s2.938-2.461 7.63-1.256" fill-opacity="0" stroke="#000" stroke-linecap="round"/>
      <path d="m219.48 267.76s4.092 0.707 6.503 4.778" fill-opacity="0" stroke="#000" stroke-linecap="round"/>
      <g fill="#ffe3bf" stroke="#ffe3bf" stroke-linecap="round">
       <path d="m168.02 377.72c-1.443 0.267-2.126 4.494-0.27 4.801 3.875 0.641 6.524-1.225 7.678-2.607 1.719-2.058-1.158-3.525-1.538-3.561-1.04-0.1-4.046 1.031-5.87 1.367z"/>
       <path d="m184.85 324.39c0-8.783 10.243-12.24 16.066-12.24 5.824 0 9.472 3.302 9.472 12.085s-12.238 20.702-16.454 17.632c-4.078-2.97-9.084-8.694-9.084-17.477z"/>
       <path d="m210.78 367.21c0.048-1.019 7.611-2.669 7.488-0.751-0.098 1.534 0.313 1.979 0.313 1.979s7.506 7.362-1.554 9.507c-5.976-1.051-6.514-5.131-6.247-10.735z"/>
      </g>
      <g fill-opacity=".33073" stroke="#000" stroke-linecap="round" stroke-opacity="0">
       <path d="m202.09 306.94c5.297 0.166 18.587-2.827 21.811-6.52 0.73 9.658 0.383 6.406 0.383 6.406-8.205 5.17-22.194 0.114-22.194 0.114z"/>
       <path d="m217.58 264.94c5.045-5.159 10.064-6.13 13.734-5.278 0 0 1.753 8.969-2.153 13.646-2.487-8.193-11.581-8.368-11.581-8.368z"/>
       <path d="m181.31 263.53c1.792-8.163 4.087-11.585 6.471-14.503 0 0 8.319 5.86 9.755 11.87-11.225-5.127-16.226 2.633-16.226 2.633z"/>
       <path d="m214.78 247.87"/>
      </g>
     </g>
    </g>
   </g>
  </g>
 </g>
</svg>
